<svg xmlns="http://www.w3.org/2000/svg" viewBox="0 0 217.79 72.32"><defs><style>.cls-1{fill:#0086ff;}</style></defs><g id="Ebene_2" data-name="Ebene 2"><g id="Ebene_1-2" data-name="Ebene 1"><path id="Pfad_1" data-name="Pfad 1" class="cls-1" d="M33.7,49.46c-4.25-1.18-10.37-4.24-13.44-10.13a35.36,35.36,0,0,0-7.54,4.48L42.89,60.54s.47.23.47-.24c0,0,0-.47,1.17-20.5a2.41,2.41,0,0,0-1.17-2.36,2.52,2.52,0,0,0-1.89-.23,3.29,3.29,0,0,0-2.35,2.59C38.64,42.86,36.76,50.17,33.7,49.46Zm19.79-7.3c.23,6.12-3.3,19.55-11.78,22.62-.24,0-.71.23-1,0C26.39,62.89,13,55.82,9,46.87a65,65,0,0,0-6.36,7.54c9.19,6.13,21,13.43,29.22,17.67.24.24.47.24.94.24C58,69,68.8,37.92,70.45,32.73a.9.9,0,0,0-.23-.71L56.08,26.13A4.54,4.54,0,0,0,50,29.67v1.18a4.36,4.36,0,0,0,1.18,2.82C51.84,34.62,53.25,37,53.49,42.16Zm8-30.87L42.18,2.57h-.71L29.22,11.29s-.47.23,0,.23h8.72a.52.52,0,0,1,.47.48l.71,6.83s0,.47-.48.23L26.86,14.12a.87.87,0,0,0-.7.23L16,34.62c1.42,0,2.59.23,4,.23,4-6.6,11.31-9.19,15.31-9.19h1.42a12.77,12.77,0,0,1,8,4.24l.24.24V29l.47-8v-.47l.47-9a.51.51,0,0,1,.47-.47l15.08.24C61.5,11.52,62,11.52,61.5,11.29ZM30.4,30.14a6.86,6.86,0,0,0-6.6,5.18c4,.71,6.6,1.42,6.6,1.42a20.24,20.24,0,0,0-6.6.94,6.74,6.74,0,0,0,13.43-.94C37.23,33.2,34.17,30.38,30.4,30.14Zm-12.49-25H.47A.51.51,0,0,0,0,5.63H0V36.74a29.07,29.07,0,0,1,9.19-1.89c3.06-13.43,9.19-29.22,9.19-29.22A.46.46,0,0,0,17.91,5.16Zm12.49,25a6.86,6.86,0,0,0-6.6,5.18c4,.71,6.6,1.42,6.6,1.42a20.24,20.24,0,0,0-6.6.94,6.74,6.74,0,0,0,13.43-.94C37.23,33.2,34.17,30.38,30.4,30.14Zm0,0a6.86,6.86,0,0,0-6.6,5.18c4,.71,6.6,1.42,6.6,1.42a20.24,20.24,0,0,0-6.6.94,6.74,6.74,0,0,0,13.43-.94C37.23,33.2,34.17,30.38,30.4,30.14Z"/><path class="cls-1" d="M111.56,21.12l18.18-20H115.83L97.49,21.39V1.13H84.25V47.21H97.49V36l5.34-6,12.94,17.16h15.35Z"/><path class="cls-1" d="M166.11,1.13V29.78c0,6.24-1.59,10.93-4.71,14s-7.86,4.58-14.06,4.58a26.35,26.35,0,0,1-9.85-1.76,17.92,17.92,0,0,1-6.23-4l6.89-8.15a15.89,15.89,0,0,0,3,2.6,8.84,8.84,0,0,0,4.74,1.43,6.48,6.48,0,0,0,5.1-2.06,8.14,8.14,0,0,0,1.76-5.58V10.57H136.1V1.13Z"/><path class="cls-1" d="M205.68,24.36H217V42.8a32.64,32.64,0,0,1-9,4,40.52,40.52,0,0,1-10.89,1.56,28.75,28.75,0,0,1-13.39-3.09,23,23,0,0,1-9.2-8.56,23.79,23.79,0,0,1-3.32-12.52,23.78,23.78,0,0,1,3.32-12.51,23,23,0,0,1,9.3-8.55A29.45,29.45,0,0,1,197.48,0a31.51,31.51,0,0,1,12.35,2.3,23.14,23.14,0,0,1,8,5.51l-8.34,7.35a15.23,15.23,0,0,0-11.13-4.8,13.1,13.1,0,0,0-9.79,3.76c-2.43,2.48-3.66,5.86-3.66,10a14,14,0,0,0,3.6,10A12.73,12.73,0,0,0,198.11,38a17.22,17.22,0,0,0,6.62-1.31l1-.39Z"/><path class="cls-1" d="M91.94,65.63l-1.43,1.59v4.67H84.25V53h6.26v6.85L96.71,53h6.93l-7.55,8.31L104,71.89H96.66Z"/><path class="cls-1" d="M107,71.05a9.68,9.68,0,0,1,0-17.2,12.41,12.41,0,0,1,10.94,0,9.67,9.67,0,0,1,0,17.2,12.41,12.41,0,0,1-10.94,0Zm7.61-4.46a4.21,4.21,0,0,0,1.53-1.65,5.82,5.82,0,0,0,0-5,4.21,4.21,0,0,0-1.53-1.65,4.24,4.24,0,0,0-4.28,0A4.21,4.21,0,0,0,108.81,60a5.82,5.82,0,0,0,0,5,4.21,4.21,0,0,0,1.53,1.65,4.24,4.24,0,0,0,4.28,0Z"/><path class="cls-1" d="M124.91,53h6.36V67h8.52v4.94H124.91Z"/><path class="cls-1" d="M141.55,53h6.36V67h8.52v4.94H141.55Z"/><path class="cls-1" d="M176.78,53V71.89h-5.23l-7.17-8.58v8.58h-6.2V53h5.23l7.17,8.58V53Z"/><path class="cls-1" d="M192.72,68.6h-7.17l-1.27,3.29h-6.47L186.06,53h6.25l8.25,18.88H194ZM191,64l-1.83-4.74L187.3,64Z"/><path class="cls-1" d="M201.83,70a8.7,8.7,0,0,1-2.43-6.58V53h6.37v10.2a4.82,4.82,0,0,0,.74,3,2.89,2.89,0,0,0,4.28,0,4.82,4.82,0,0,0,.75-3V53h6.25V63.39A8.7,8.7,0,0,1,215.36,70a10.91,10.91,0,0,1-13.53,0Z"/></g></g></svg>