<svg xmlns="http://www.w3.org/2000/svg" viewBox="0 0 266 266"><defs><style>.cls-1{fill:#0086ff;}.cls-2{fill:#fff;}</style></defs><g id="Ebene_2" data-name="Ebene 2"><g id="Ebene_1-2" data-name="Ebene 1"><rect class="cls-1" width="266" height="266"/><path class="cls-2" d="M133,132.63a24.57,24.57,0,1,0-24.56-24.57A24.56,24.56,0,0,0,133,132.63Zm0-41.69a17.12,17.12,0,1,1-17.12,17.12A17.14,17.14,0,0,1,133,90.94Z"/><path class="cls-2" d="M173.92,165.61c-.66-13.46-25.8-24.64-30.84-26.74l-2.23-.93L133,145.37l-7.85-7.43-2.23.93a112.45,112.45,0,0,0-14.59,7.6c-10.63,6.61-15.94,12.87-16.26,19.17,0,.16,0,.32,0,.48,0,10.76,20.6,16.38,40.94,16.38s40.94-5.62,40.94-16.38C173.94,166,173.93,165.82,173.92,165.61ZM133,175.06c-22.1,0-33.5-6.26-33.5-8.93V166c.3-6.07,13.59-14.53,24.07-19.28l9.42,8.92,9.4-8.9a106.9,106.9,0,0,1,11.34,6.07c7.93,4.93,12.58,9.74,12.75,13.23v.11C166.49,168.8,155.09,175.06,133,175.06Z"/></g></g></svg>